<?xml version="1.0" standalone="no"?>
<!DOCTYPE svg PUBLIC "-//W3C//DTD SVG 20010904//EN"
 "http://www.w3.org/TR/2001/REC-SVG-20010904/DTD/svg10.dtd">
<svg version="1.0" xmlns="http://www.w3.org/2000/svg"
 width="743.000000pt" height="610.000000pt" viewBox="0 0 743.000000 610.000000"
 preserveAspectRatio="xMidYMid meet">
<metadata>
Created by potrace 1.16, written by Peter Selinger 2001-2019
</metadata>
<g transform="translate(0.000000,610.000000) scale(0.100000,-0.100000)"
fill="#000000" stroke="none">
<path d="M3986 6039 c-30 -36 -32 -60 -9 -99 16 -27 15 -58 -11 -537 -15 -279
-30 -547 -33 -594 l-6 -86 -121 -7 c-344 -20 -631 -93 -942 -242 -51 -24 -96
-44 -101 -44 -4 0 -52 175 -107 390 l-98 389 21 27 c42 54 19 138 -46 169 -33
16 -41 16 -77 4 -46 -16 -86 -67 -86 -109 0 -40 40 -93 80 -106 l33 -11 98
-384 c54 -211 99 -393 99 -404 0 -14 -16 -29 -49 -47 -183 -103 -433 -319
-596 -513 l-87 -104 -52 33 c-140 90 -934 612 -965 635 -30 22 -36 31 -33 59
3 25 -3 39 -27 62 -49 49 -114 36 -140 -29 -18 -42 8 -96 55 -111 18 -6 38 -9
43 -5 6 3 28 -5 49 -19 59 -37 909 -594 974 -637 l57 -39 -63 -102 c-71 -117
-137 -249 -165 -329 -10 -30 -23 -54 -27 -53 -5 1 -181 50 -392 110 l-383 109
-16 33 c-20 42 -53 64 -97 65 -71 2 -116 -46 -116 -122 0 -30 7 -46 30 -69 46
-47 115 -48 164 -3 21 18 25 17 408 -92 358 -102 386 -111 377 -128 -5 -11 -8
-19 -5 -19 2 0 -4 -32 -14 -70 -10 -39 -19 -73 -19 -75 -1 -3 -1 -6 -2 -7 -6
-25 -13 -140 -13 -234 l-1 -121 -438 -223 c-428 -217 -439 -222 -458 -204 -31
28 -87 24 -115 -10 -35 -40 -32 -87 7 -120 17 -14 39 -26 50 -26 31 0 74 26
86 52 8 19 115 77 438 242 235 120 430 214 434 209 4 -4 16 -46 25 -93 48
-229 171 -450 347 -621 93 -90 188 -158 326 -231 l102 -54 -284 -272 c-277
-266 -285 -272 -325 -272 -23 0 -54 -7 -69 -15 -47 -24 -68 -104 -41 -155 15
-28 69 -60 101 -60 65 0 126 80 108 142 -7 26 7 42 288 315 162 159 300 287
307 286 6 0 54 -13 106 -27 114 -31 257 -56 316 -56 23 0 45 -4 48 -9 3 -5 -8
-255 -24 -557 -17 -302 -30 -565 -30 -584 0 -30 -4 -37 -30 -47 -37 -14 -64
-70 -51 -105 25 -65 101 -81 146 -32 29 31 31 62 9 106 -13 26 -15 49 -10 122
20 262 77 989 82 1037 l6 56 116 7 c315 18 606 93 905 234 64 30 119 53 121
51 3 -3 48 -177 101 -389 l96 -384 -20 -37 c-12 -20 -21 -49 -21 -64 0 -65 70
-123 135 -111 46 9 95 66 95 110 0 45 -38 99 -78 111 -25 7 -34 17 -42 45 -18
61 -190 750 -190 759 0 4 51 42 113 83 l114 76 46 -29 c60 -37 927 -596 1035
-667 69 -45 83 -58 78 -75 -8 -31 20 -86 49 -97 43 -16 65 -12 96 19 57 58 23
141 -60 147 -24 1 -59 13 -79 27 -21 13 -277 178 -569 367 -293 188 -533 346
-533 349 0 4 32 33 70 66 100 83 284 276 358 376 34 46 71 94 82 107 10 12 20
26 21 30 0 4 19 37 40 74 49 84 129 248 129 266 0 8 7 11 18 8 29 -9 560 -156
680 -189 96 -26 115 -34 123 -54 29 -77 131 -100 188 -42 58 58 40 154 -36
185 -42 18 -83 11 -121 -20 l-27 -23 -387 111 c-213 61 -389 113 -392 116 -2
3 9 57 25 120 36 142 44 216 43 395 -1 201 -43 385 -124 546 -18 34 -28 65
-23 69 4 4 240 125 523 269 l514 261 42 -20 c45 -22 65 -19 102 13 53 48 12
147 -61 147 -34 0 -87 -38 -87 -64 -1 -6 -26 -23 -58 -38 -31 -15 -274 -137
-539 -271 l-481 -245 -33 46 c-60 86 -142 173 -224 239 -86 70 -257 175 -312
194 -19 6 -33 15 -31 20 2 5 131 133 288 285 245 236 288 274 309 269 35 -9
88 13 112 46 39 54 21 139 -34 167 -49 25 -99 18 -135 -18 -33 -32 -44 -69
-32 -109 7 -25 -1 -36 -89 -122 -53 -52 -187 -184 -297 -293 l-201 -198 -89
25 c-120 35 -231 57 -326 64 l-79 6 5 46 c3 25 18 291 33 590 27 534 28 543
49 551 37 14 66 61 60 94 -16 78 -101 103 -150 45z m214 -1493 c211 -44 428
-135 565 -238 227 -169 370 -394 431 -673 20 -96 24 -351 5 -436 -6 -30 -14
-69 -17 -85 -10 -57 -66 -229 -78 -236 -6 -4 -7 -8 -3 -8 5 0 5 -6 0 -12 -4
-7 -8 -17 -9 -23 -5 -28 -65 -145 -76 -145 -6 0 -9 -3 -5 -6 8 -8 -33 -81
-101 -179 -304 -443 -808 -788 -1349 -924 -202 -51 -321 -64 -553 -59 -178 4
-221 8 -325 32 -191 44 -322 98 -465 191 -263 169 -443 445 -490 750 -13 83
-16 294 -6 355 4 19 11 60 16 91 13 72 56 221 80 273 10 23 33 74 50 114 18
39 37 72 41 72 5 0 8 3 7 8 -5 17 118 212 133 212 5 0 8 4 7 9 -2 5 29 49 68
97 268 332 706 624 1125 749 103 31 285 72 374 84 104 14 484 5 575 -13z"/>
<path d="M3474 4260 c-86 -19 -139 -84 -139 -169 0 -160 174 -234 294 -126
128 116 14 334 -155 295z m99 -72 c71 -37 63 -164 -14 -204 -98 -50 -205 57
-155 154 34 66 101 86 169 50z"/>
<path d="M3735 3604 c-73 -38 -101 -93 -92 -176 17 -137 177 -272 321 -273
156 0 231 124 163 270 -31 66 -121 147 -192 174 -67 25 -158 27 -200 5z m200
-114 c92 -50 146 -151 111 -205 -44 -68 -196 -29 -271 69 -36 48 -46 123 -19
147 39 35 104 31 179 -11z"/>
<path d="M3070 3209 c-122 -20 -240 -110 -295 -224 -23 -48 -29 -78 -33 -146
-5 -102 12 -165 65 -246 44 -67 82 -99 163 -137 87 -40 206 -48 292 -17 108
37 195 116 238 214 128 290 -118 607 -430 556z m185 -133 c105 -49 165 -143
165 -262 0 -87 -31 -155 -97 -214 -121 -107 -316 -86 -414 43 -61 81 -75 175
-42 273 21 63 102 145 163 167 69 24 165 21 225 -7z"/>
<path d="M2280 2930 c-11 -11 -20 -31 -20 -45 0 -31 41 -75 70 -75 28 0 70 43
70 73 0 57 -79 88 -120 47z"/>
<path d="M3935 2741 c-66 -27 -79 -105 -27 -152 43 -39 84 -38 123 0 47 48 35
118 -28 150 -25 13 -40 13 -68 2z"/>
</g>
</svg>
